<?xml version="1.0" encoding="UTF-8"?>
<!-- Created with Inkscape (http://www.inkscape.org/) -->
<svg width="30" height="30" version="1.1" viewBox="0 0 7.9375 7.9375" xmlns="http://www.w3.org/2000/svg">
 <g>
  <path transform="scale(.26458)" d="m15 0a15 15 0 0 0-15 15 15 15 0 0 0 15 15 15 15 0 0 0 15-15 15 15 0 0 0-15-15zm0 2.5a12.5 12.5 0 0 1 12.5 12.5 12.5 12.5 0 0 1-12.5 12.5 12.5 12.5 0 0 1-12.5-12.5 12.5 12.5 0 0 1 12.5-12.5z" fill-rule="evenodd"/>
  <path d="m2.8535 2.291a0.39687 0.39687 0 0 0-0.24805 0.17578 0.39687 0.39687 0 0 0 0.125 0.54688l1.5195 0.95508-1.5195 0.95508a0.39687 0.39687 0 0 0-0.125 0.54688 0.39687 0.39687 0 0 0 0.54688 0.125l2.0547-1.291a0.39691 0.39691 0 0 0 0-0.67188l-2.0547-1.291a0.39687 0.39687 0 0 0-0.29883-0.050781z" color="#000000" stroke-linecap="round" stroke-linejoin="round" style="-inkscape-stroke:none"/>
 </g>
</svg>
